<?xml version="1.0" encoding="utf-8"?>
<!-- Generator: Adobe Illustrator 19.0.0, SVG Export Plug-In . SVG Version: 6.00 Build 0)  -->
<svg version="1.1" id="Capa_1" xmlns="http://www.w3.org/2000/svg" xmlns:xlink="http://www.w3.org/1999/xlink" x="0px" y="0px"
	 viewBox="156 -231 512 512" style="enable-background:new 156 -231 512 512;" xml:space="preserve">
<g>
	<g>
		<g>
			<path d="M412-231c-141.4,0-256,114.6-256,256s114.6,256,256,256S668,166.4,668,25S553.4-231,412-231z M530.2,175
				c-3.2,5.9-9.2,9.1-15.4,9.1c-2.9,0-5.8-0.7-8.5-2.1c-41-22.6-87.6-34.5-134.6-34.5c-28.2,0-56,4.2-82.7,12.4
				c-9.3,2.9-19.1-2.3-22-11.6c-2.9-9.2,2.3-28.9,11.6-31.8c30-9.3,61.4-14,93.1-14c52.9,0,105.4,13.4,151.6,38.9
				C531.9,146,535,166.6,530.2,175z M562.8,78.6c-3.6,7.1-10.8,18.5-18.2,18.5c-3.2,0-6.4-0.7-9.4-2.3C484.3,68.4,429.4,55,371.8,55
				c-31.7,0-63.2,4.2-93.6,12.5c-11,3-22.2-3.4-25.2-14.4c-2.9-11,3.5-29.6,14.4-32.6c33.9-9.2,69.1-14,104.4-14
				C435.1,6.6,498.1,22,554,51C564.1,56.2,568,68.6,562.8,78.6z M576.4,1.4c-3.5,0-7.1-0.8-10.4-2.5c-60.6-30.2-126-45.5-194.1-45.5
				c-35.5,0-70.9,4.3-105.2,12.8c-12.6,3.1-25.3-4.5-28.4-17.1c-3.1-12.5,4.5-27.7,17.1-30.8c38-9.4,77.2-14.2,116.5-14.2
				c75.5,0,147.9,17,215,50.5c11.6,5.8,16.4,19.9,10.6,31.5C593.3-5.8,585,1.4,576.4,1.4z"/>
		</g>
	</g>
</g>
</svg>
