<svg xmlns="http://www.w3.org/2000/svg" viewBox="0 0 100 125" x="0px" y="0px">
  <defs>
    <style>.cls-1{fill:#010101;}</style>
  </defs>
  <title>Icon</title>
  <path class="cls-1"
        d="M80.14,43.38a2,2,0,0,0-1.49-.78,3.82,3.82,0,0,0-2.45,1.15c0.89-3.66,2.24-9.88,2.24-13.84,0-4.54-2.88-12.48-6.75-16.3C68.69,10.65,57,3.2,48,3.2S27.25,10.65,24.24,13.62c-3.87,3.82-6.8,11.75-6.8,16.3,0,4,1.35,10.19,2.24,13.85a3.83,3.83,0,0,0-2.46-1.17,2,2,0,0,0-1.5.78,6.16,6.16,0,0,0-1.48,3.83c0.11,1.13.16,2.08,0.21,3A39.08,39.08,0,0,0,15,55.23c0.74,4.14,2.54,6.06,3.55,6.83a2.31,2.31,0,0,0,1.42.47,2.67,2.67,0,0,0,.39,0c0,1,0,2,0,3.32,0,10.44,10.38,21.43,11.56,22.65a21.93,21.93,0,0,0,32.11,0c1.18-1.22,11.51-12.21,11.51-22.65,0-1.28,0-2.35,0-3.32a2.66,2.66,0,0,0,.37,0,2.31,2.31,0,0,0,1.42-.47c1-.77,2.81-2.69,3.55-6.83a39,39,0,0,0,.54-5.05c0.05-.88.11-1.83,0.22-3A6.17,6.17,0,0,0,80.14,43.38ZM73.5,46.19l-0.1,1.56c0,5.45,0,8.29.08,10.8l0,1.24a29.15,29.15,0,0,1-5.18,10.57,47,47,0,0,0-5.25,9.17L63,69.91s-6.88-3.75-8.63-4.58a12.23,12.23,0,0,0-4.28-.85L48,66.19l-1.91-1.71a15.87,15.87,0,0,0-5.11.85c-1.75.83-7.63,4.58-7.63,4.58l-0.09,9.63A47.86,47.86,0,0,0,28,70.36C23.61,64.27,22.6,60,22.41,57.16c0-2.22.06-4.94,0.06-9.46L22.4,46.4l0-.21s-0.44-1.64-1-3.9c0.41-6.83,2.18-9.39,2.18-9.39a29.66,29.66,0,0,1,1-11.43c5.3-3,11.86-1.47,16.5-.38a42.91,42.91,0,0,0,16.27-.22s3.84-5.3-1.72-8.24c3.5,1.31,6.47,3.26,4.92,8.18,3.5,0,7.23-.77,10.74.66a29.66,29.66,0,0,1,1,11.43s1.77,2.57,2.18,9.41C73.95,44.57,73.52,46.15,73.5,46.19ZM48,79a33.21,33.21,0,0,1-7.52-.93c1.4,2,6.57,3.45,7.4,3.68-3.85.08-3,3.38-8.1-.75S36,72.56,36,72.56c1-.26,3.72-2.81,4.95-3.42a16.87,16.87,0,0,1,4.91-.89L48,69.32l2.33-1.07a12.73,12.73,0,0,1,4,.89c1.22,0.61,4.94,3.16,6,3.42,0,0,.18,4.27-4.94,8.44s-3.41.83-7.24,0.75c0.83-.23,6-1.72,7.4-3.68A33.21,33.21,0,0,1,48,79ZM19.46,60.87c-0.84-.64-2.33-2.26-3-5.9A37.89,37.89,0,0,1,16,50.08c-0.05-.9-0.11-1.86-0.22-3a4.82,4.82,0,0,1,1-2.62,1,1,0,0,1,.44-0.36c1,0,2.37,1.72,3.1,2.64l0.1,0.13,0,0.89c0,5.44,0,8.27-.07,10.77,0,0.81,0,1.59,0,2.42A1,1,0,0,1,19.46,60.87ZM79.91,50.09A37.83,37.83,0,0,1,79.39,55c-0.65,3.64-2.15,5.26-3,5.9a0.94,0.94,0,0,1-.89.08c0-.83,0-1.62,0-2.43,0-2.5-.07-5.34-0.08-10.72l0.05-1,0.09-.11c0.73-.92,2.08-2.64,3.1-2.64a1,1,0,0,1,.44.36,4.82,4.82,0,0,1,1,2.62C80,48.23,80,49.19,79.91,50.09Z"/>
  <path class="cls-1"
        d="M37.7,44.62c-2-.41-5.05-0.17-8.32,3.29a0.75,0.75,0,1,0,1.09,1,10.67,10.67,0,0,1,2.82-2.21,2.61,2.61,0,0,0,5.21-.17c0-.05,0-0.1,0-0.15a6.07,6.07,0,0,1,1.76,1.07,0.75,0.75,0,1,0,1-1.09A7.92,7.92,0,0,0,37.7,44.62Z"/>
  <path class="cls-1"
        d="M42.36,42.28s0.14-2,.14-3.6a20.31,20.31,0,0,0-12.88-.62c-1.08,1-3.75,3.68-3.89,4.28s-1.11,4.1-1.11,4.1C29.19,39.1,42.36,42.28,42.36,42.28Z"/>
  <path class="cls-1"
        d="M58.42,44.62a7.92,7.92,0,0,0-3.59,1.77,0.75,0.75,0,1,0,1,1.09,6.22,6.22,0,0,1,1.76-1.06s0,0.09,0,.14a2.61,2.61,0,0,0,5.21.17,10.75,10.75,0,0,1,2.82,2.2,0.75,0.75,0,1,0,1.09-1C63.47,44.46,60.41,44.21,58.42,44.62Z"/>
  <path class="cls-1"
        d="M66.5,38.05a20.31,20.31,0,0,0-12.88.62c0,1.59.14,3.6,0.14,3.6S66.93,39.1,71.5,46.43c0,0-1-3.5-1.11-4.1S67.57,39.09,66.5,38.05Z"/>
  <path class="cls-1"
        d="M58.72,73.41c-1-.32-3.21-2.41-5.3-3.09a15.22,15.22,0,0,0-3.3-.61L48,70.84l-2.2-1.13a15.37,15.37,0,0,0-3.34.61c-2.1.68-4.28,2.77-5.32,3.09a3.23,3.23,0,0,0,2.15.5,21.52,21.52,0,0,1,4.35-.48c1.51,0,2.35.93,4.35,0.93s2.77-.92,4.28-0.93a11.72,11.72,0,0,1,3.28.48A8.32,8.32,0,0,0,58.72,73.41Z"/>
  <path class="cls-1"
        d="M48.16,61.38c-2.85,0-5.65-.74-6.36-0.57a6.18,6.18,0,0,0,.67.61,9.26,9.26,0,0,0,5.7,1.8,8.76,8.76,0,0,0,6.41-2.46C54,60.56,51,61.38,48.16,61.38Z"/>
  <text x="0" y="115" fill="#000000" font-size="5px" font-weight="bold"
        font-family="'Helvetica Neue', Helvetica, Arial-Unicode, Arial, Sans-serif">Created by Ben Marsh
  </text>
  <text x="0" y="120" fill="#000000" font-size="5px" font-weight="bold"
        font-family="'Helvetica Neue', Helvetica, Arial-Unicode, Arial, Sans-serif">from the Noun Project
  </text>
</svg>
